<svg version="1.1" id="Layer_1" xmlns="http://www.w3.org/2000/svg" xmlns:xlink="http://www.w3.org/1999/xlink" x="0px" y="0px"
	 width="100%" viewBox="0 0 624 624" enable-background="new 0 0 624 624" xml:space="preserve">
<path fill="#000000" opacity="1.000000" stroke="none" 
	d="
M155.141266,357.786621 
	C143.675735,340.488251 135.543488,322.256012 133.136841,301.793091 
	C132.141113,293.326691 133.075302,285.124817 137.470566,277.679138 
	C141.445984,270.944702 147.749100,268.353302 155.268356,266.291138 
	C162.958572,264.182037 165.709335,268.183929 169.272354,272.895508 
	C173.990021,279.133942 178.956100,285.185608 183.866898,291.276001 
	C184.758362,292.381592 185.400421,293.947021 187.230301,293.887634 
	C190.863083,286.766815 188.977066,277.321045 182.869629,273.128998 
	C176.722900,268.910004 171.876297,263.536713 167.792038,257.375671 
	C167.137482,256.388306 166.207489,255.448059 166.439148,254.259811 
	C168.397125,244.216675 167.444931,233.702194 172.190704,224.080170 
	C177.171570,213.981461 184.593979,207.181137 195.652206,205.007141 
	C199.320419,204.285980 201.001404,202.207626 202.653198,199.412033 
	C212.697586,182.412247 224.442276,166.801254 238.984268,153.275604 
	C251.873932,141.286774 267.574402,136.520706 284.374084,134.826874 
	C323.916199,130.840027 362.385803,136.248154 399.586609,149.959488 
	C417.543976,156.578156 434.389404,165.496002 446.420349,181.101883 
	C458.044495,196.180145 463.710571,213.959152 468.292145,232.131866 
	C468.697968,233.741455 469.174194,235.351349 469.377319,236.990875 
	C470.235413,243.916824 473.189117,248.813080 479.466278,252.940140 
	C493.340881,262.062317 495.486938,276.351440 492.935822,291.478912 
	C489.485321,311.939545 479.238495,321.722961 458.317780,324.862061 
	C454.300049,325.464905 452.746948,327.092468 451.589630,330.692444 
	C446.944153,345.143250 439.678894,357.809296 426.123962,365.868774 
	C418.518860,370.390594 418.677246,370.311249 423.339966,377.760498 
	C434.139587,395.014038 439.522339,413.753601 438.292542,434.222687 
	C438.039825,438.428955 436.159851,441.765076 433.302094,444.794830 
	C424.270142,454.370605 412.804993,459.969330 400.997467,465.143463 
	C384.311005,472.455536 367.260101,478.431854 349.024658,480.410980 
	C346.201843,480.717377 344.857971,482.976257 343.084442,484.662659 
	C335.452942,491.919250 326.939148,496.453979 316.013336,493.391327 
	C311.214355,492.046112 307.224731,489.342102 304.285553,485.326111 
	C302.264374,482.564453 299.874908,481.524780 296.369476,481.171906 
	C265.923981,478.107086 237.511887,469.055725 211.914932,451.868256 
	C208.625443,449.659485 207.184692,447.231567 207.609436,443.219025 
	C208.466568,435.121826 209.109512,426.980225 211.035873,419.071472 
	C211.892563,415.554260 211.013000,413.604645 208.308578,411.454987 
	C188.559677,395.757080 170.016235,378.834564 155.141266,357.786621 
M279.572632,332.839386 
	C306.100189,341.062592 333.302704,343.896301 360.940155,342.525482 
	C370.054260,342.073425 379.172363,340.780914 387.828766,337.561096 
	C392.129639,335.961334 396.409485,334.164001 398.885986,329.959747 
	C398.017242,328.786652 397.018127,328.562592 396.034546,328.526123 
	C386.679382,328.179047 377.603271,325.989319 368.444611,324.362671 
	C363.880249,323.551941 359.355072,322.050049 355.174805,325.687958 
	C354.468994,326.302216 352.901581,326.243134 351.812286,326.048096 
	C345.267578,324.876343 338.718170,323.701355 332.226562,322.272156 
	C327.662689,321.267365 326.539490,318.528198 327.744629,312.478607 
	C328.750397,307.429779 331.009888,305.553925 335.554108,306.311707 
	C341.946198,307.377655 348.308502,308.621124 354.688934,309.758453 
	C356.414551,310.065979 358.173309,310.688934 358.760162,312.298584 
	C359.964966,315.603180 362.762024,316.055817 365.512939,316.539612 
	C374.677155,318.151306 383.863281,319.637848 393.039124,321.183594 
	C403.320496,322.915619 406.476410,321.141602 408.738739,311.169678 
	C414.988190,283.623444 411.117615,256.983246 400.979858,230.987625 
	C395.653107,217.328537 386.452454,207.419907 373.102356,201.083710 
	C348.285645,189.305237 322.027527,185.464249 294.910461,186.483688 
	C280.381165,187.029907 267.684998,191.857132 258.215942,203.756271 
	C242.704956,223.247833 231.749207,244.817932 227.124237,269.414185 
	C222.896286,291.899200 229.272766,306.294220 248.513290,318.653137 
	C257.984863,324.737091 268.209198,329.055450 279.572632,332.839386 
M223.004578,249.697342 
	C228.562393,233.515244 236.245758,218.436188 246.429474,204.662903 
	C256.652954,190.835815 268.738190,180.299973 287.004242,178.469986 
	C314.035248,175.761871 340.164276,179.157944 365.582886,188.357407 
	C381.387115,194.077271 395.591339,202.043823 404.028717,217.623337 
	C412.726807,233.684280 417.064911,251.013214 419.303497,268.956482 
	C421.086853,283.250763 421.002960,297.516907 417.770233,311.647797 
	C416.987671,315.068542 418.281769,316.209808 421.438171,314.810486 
	C424.781891,313.328125 427.983948,311.529633 431.285919,309.948700 
	C434.344940,308.484192 435.027740,306.237640 434.397095,302.975525 
	C430.656097,283.624603 434.937012,265.691681 444.428711,248.780670 
	C445.292450,247.241806 445.978271,245.815125 445.587952,244.104538 
	C441.759644,227.326874 437.280090,210.786880 427.080658,196.496292 
	C417.844513,183.555389 404.205414,176.735199 390.049866,171.213699 
	C357.578125,158.547821 323.824860,154.056549 289.117767,157.430206 
	C274.115814,158.888474 260.694794,164.026855 250.084412,175.361481 
	C222.643661,204.675293 204.455750,238.762833 197.681839,278.450378 
	C194.125076,299.288849 200.766846,316.647949 217.557617,330.228180 
	C233.442490,343.075745 251.672363,350.882416 270.883606,356.731720 
	C291.801361,363.100525 313.245819,366.773987 335.087860,368.131958 
	C358.582367,369.592621 381.945557,369.531067 405.149811,364.559174 
	C426.274292,360.032928 438.066986,346.582855 443.898621,326.556976 
	C445.419708,321.333466 440.774506,320.102448 439.006378,317.083710 
	C437.442505,314.413635 435.081360,316.638947 433.290161,317.464294 
	C427.242767,320.250824 421.307983,323.300659 414.917480,325.254822 
	C412.917480,325.866394 412.082214,327.393402 411.146362,328.982819 
	C405.917389,337.863525 398.366760,343.662659 388.422211,346.548187 
	C379.417450,349.161011 370.219666,350.756500 360.927948,351.184692 
	C339.244476,352.183899 317.674561,350.936066 296.404236,346.232727 
	C275.930420,341.705536 256.255707,335.164948 239.127213,322.589447 
	C229.092117,315.221832 221.178329,306.211121 218.336853,293.615723 
	C214.978668,278.729858 218.539536,264.560486 223.004578,249.697342 
M345.218597,404.424347 
	C353.862671,402.494263 362.642639,401.810486 371.469269,401.731232 
	C375.280121,401.696991 377.074097,400.034241 376.704437,396.231964 
	C376.302582,392.098602 375.623444,387.982941 375.417786,383.842072 
	C375.152405,378.499084 372.622498,376.674072 367.394623,377.365234 
	C356.262573,378.836914 345.059784,377.799652 333.992676,376.924866 
	C305.545654,374.676331 277.637390,369.435730 250.933167,358.947693 
	C247.839706,357.732758 245.788452,358.632599 244.096115,361.119904 
	C241.568863,364.834290 238.923218,368.482056 236.624054,372.334869 
	C231.326614,381.211914 231.399902,381.253174 240.506454,385.678101 
	C246.601456,388.639709 252.564835,391.951447 254.366470,399.109222 
	C256.735229,408.520081 263.490082,412.591339 272.099243,414.505341 
	C283.458344,417.030731 294.909668,419.148682 306.243988,421.775665 
	C315.679871,423.962677 323.336792,421.250610 329.554779,414.180176 
	C333.637238,409.537994 338.361755,406.100098 345.218597,404.424347 
M272.039032,468.416016 
	C277.120148,469.258667 282.173920,470.401550 287.289368,470.867249 
	C293.544128,471.436646 296.478424,468.419647 296.725525,462.269775 
	C297.147125,451.777740 299.120361,441.786041 306.383301,433.555573 
	C307.305206,432.510834 308.510742,431.340881 307.891205,429.564270 
	C306.405853,427.965393 304.247375,427.982666 302.378998,427.562836 
	C292.488983,425.340454 282.511902,423.495972 272.648956,421.165283 
	C263.289917,418.953674 253.478531,416.359894 250.361847,405.831512 
	C247.879684,397.446533 242.473724,393.194275 235.032867,390.178589 
	C229.118195,387.781433 228.650085,387.770142 226.547424,393.932587 
	C221.808258,407.822113 218.963287,422.103668 216.990387,436.657318 
	C216.174454,442.676361 218.414413,445.486359 222.987152,448.214233 
	C238.111694,457.236816 254.074432,464.138702 272.039032,468.416016 
M323.127899,431.624481 
	C310.186066,437.970551 305.395782,449.179932 305.490479,462.701202 
	C305.546021,470.633942 307.426025,478.565155 314.994843,482.993469 
	C323.158173,487.769562 331.392029,485.242035 338.818268,475.926331 
	C341.330566,472.774811 344.230804,471.243866 347.999207,470.723145 
	C350.465912,470.382263 352.965179,470.093903 355.359436,469.447296 
	C361.599213,467.762238 368.467133,467.712860 373.989441,464.187408 
	C386.346039,456.298859 388.605316,435.407379 378.485443,424.855988 
	C375.628601,421.877380 372.545959,418.746613 367.804413,419.405670 
	C352.635712,421.514008 337.525146,423.881073 323.127899,431.624481 
M201.535400,394.958435 
	C205.607697,397.837372 208.774643,402.103546 214.461685,403.865326 
	C219.254486,385.339355 227.227524,368.872101 238.647614,353.535889 
	C220.257706,344.790588 205.492340,332.625702 193.365509,317.407532 
	C192.026352,318.241119 191.381805,318.491791 190.937836,318.940796 
	C180.763855,329.230072 173.665543,341.050507 171.072769,355.601868 
	C170.037689,361.410980 171.511154,365.219727 175.311035,369.392334 
	C183.398911,378.273560 192.107010,386.466095 201.535400,394.958435 
M394.140015,417.154785 
	C390.090149,417.614868 385.845032,416.879028 381.955750,419.059113 
	C382.124603,419.606415 382.142883,420.154602 382.419220,420.490387 
	C391.012146,430.932312 392.511688,442.522400 388.145294,455.112579 
	C387.731049,456.306885 386.962830,457.676453 388.125610,458.864075 
	C389.461792,460.228668 390.942322,459.328583 392.312317,458.861084 
	C402.762482,455.294891 412.617798,450.560669 421.424408,443.816406 
	C427.158661,439.424988 430.560852,434.132141 429.841614,426.354675 
	C429.335419,420.880981 428.828674,415.422119 427.531860,410.118591 
	C424.591858,398.094971 420.729980,386.439972 411.940308,377.144684 
	C409.698883,374.774323 407.345123,372.543854 403.750916,373.613800 
	C398.291260,375.239014 392.635406,375.560730 387.050140,376.254822 
	C383.245850,376.727570 381.770782,378.385712 382.265930,382.136658 
	C383.134033,388.712463 383.689392,395.335052 384.737305,401.880188 
	C385.971283,409.587433 386.153076,409.467072 393.809753,410.698090 
	C397.422394,411.278900 401.331085,411.204437 404.702301,414.107117 
	C401.509949,416.305084 398.038422,415.933563 394.140015,417.154785 
M144.031754,313.541473 
	C148.133911,327.965240 153.931046,341.521759 163.562531,353.346802 
	C164.346802,352.587799 164.723358,352.399963 164.786438,352.136932 
	C168.339111,337.324097 175.883926,324.782349 186.480881,313.982819 
	C188.213684,312.216888 187.426147,310.701385 186.232071,309.135468 
	C183.505692,305.560181 180.787186,301.978851 178.072449,298.394714 
	C173.148041,291.893311 168.706635,284.983612 162.691635,279.386627 
	C156.485672,273.611938 150.318863,274.366638 145.388184,281.292725 
	C143.711243,283.648254 142.944962,286.344330 142.243851,289.105988 
	C140.196579,297.170502 142.236938,304.947632 144.031754,313.541473 
M467.725769,312.398376 
	C459.750305,296.124390 462.030090,280.519562 470.841034,265.366028 
	C471.629700,264.009644 472.110291,262.637115 471.895996,261.102325 
	C471.080658,255.263046 465.807373,254.839386 461.828003,253.787598 
	C458.058502,252.791306 452.867035,250.043091 450.183136,255.438416 
	C444.012909,267.842285 440.992859,281.126984 441.668060,294.995972 
	C442.000580,301.826385 442.494995,301.812347 448.667694,299.256836 
	C450.509644,298.494263 452.310883,298.220856 453.541840,300.145813 
	C454.602234,301.804108 453.934753,303.365234 452.653625,304.635406 
	C451.830414,305.451569 450.785156,306.051422 450.001831,306.898407 
	C448.655640,308.354004 445.667694,308.842407 446.693848,311.778137 
	C447.742645,314.778656 450.301636,316.561096 453.195831,316.406586 
	C458.094086,316.145020 463.265930,316.341888 467.725769,312.398376 
M187.577988,218.022598 
	C179.410721,224.853638 177.049515,234.221100 176.380463,244.211868 
	C176.027649,249.480118 177.864731,254.007996 182.402847,257.092926 
	C183.794785,258.039154 184.790588,260.348480 186.994507,259.065948 
	C188.962189,257.920929 188.419678,255.891724 188.127029,254.101242 
	C187.325760,249.198959 189.298004,245.694534 193.533752,243.386475 
	C199.248260,240.272629 203.666412,231.516281 202.715775,225.090256 
	C202.143921,221.224625 201.628860,217.350601 201.070648,213.354126 
	C196.272690,213.213135 192.001511,214.746353 187.577988,218.022598 
M475.287567,273.933624 
	C470.869904,282.791321 470.224365,292.073120 472.238159,301.630798 
	C472.581665,303.261230 473.079651,305.098846 474.945892,305.495483 
	C477.278595,305.991272 478.108948,303.877899 478.903870,302.346130 
	C483.429626,293.625397 484.763306,284.425720 482.695557,274.772705 
	C482.266968,272.771851 481.796387,270.522369 479.607727,270.061401 
	C477.450073,269.606964 476.735962,271.910919 475.287567,273.933624 
M359.279968,409.093018 
	C353.012573,409.502991 346.703674,409.761566 341.449646,414.037292 
	C351.926056,412.886414 362.234314,410.966461 372.600159,409.294281 
	C368.384155,408.324249 364.276764,408.087219 359.279968,409.093018 
M365.038940,153.118805 
	C366.093506,155.151443 368.097931,154.749222 369.826172,154.894470 
	C371.241760,155.013428 372.535614,154.548340 372.593414,152.827347 
	C372.638336,151.490173 371.734863,150.651489 370.497864,150.477448 
	C368.336609,150.173401 365.776215,149.011398 365.038940,153.118805 
z"/>
<path fill="#000000" opacity="1.000000" stroke="none" 
	d="
M326.240997,285.579742 
	C329.758148,286.306000 330.716766,288.548218 330.231262,291.264130 
	C328.456757,301.191559 324.621368,310.068665 314.358124,313.682343 
	C304.151611,317.276093 294.565033,315.095276 286.720215,307.550995 
	C280.447388,301.518524 278.787323,288.228882 282.558258,280.424347 
	C284.102295,277.228729 286.761169,277.338409 289.343750,277.856323 
	C301.527374,280.299713 313.673859,282.928406 326.240997,285.579742 
z"/>
<path fill="#000000" opacity="1.000000" stroke="none" 
	d="
M349.948547,255.741608 
	C356.455627,253.051483 360.402069,254.511673 362.256165,260.706360 
	C364.776581,269.127136 363.829529,277.160187 357.962402,284.166290 
	C355.827148,286.715973 353.192535,288.643677 349.782532,288.003937 
	C345.930267,287.281250 343.902924,284.194916 343.056366,280.668701 
	C340.809875,271.311310 342.488525,262.869965 349.948547,255.741608 
M354.534058,270.485626 
	C358.070679,269.302185 358.114227,266.550751 357.269531,263.726868 
	C356.817627,262.215942 355.241211,261.857269 354.116974,263.061096 
	C352.016846,265.309875 351.189575,267.804291 354.534058,270.485626 
z"/>
<path fill="#000000" opacity="1.000000" stroke="none" 
	d="
M268.858398,251.085724 
	C265.955994,249.214371 263.337646,247.554916 260.328705,245.647919 
	C263.469086,243.495529 266.355621,244.386490 268.914490,244.986115 
	C276.694641,246.809250 282.066528,251.813156 285.686615,258.803894 
	C286.651398,260.666962 287.087646,262.661896 285.659973,264.444397 
	C284.157654,266.320099 282.069885,266.175446 280.206512,265.170166 
	C274.831329,262.270325 269.156586,264.258026 263.215302,264.340607 
	C263.918213,261.481934 265.976349,260.635620 267.745178,259.604248 
	C269.442780,258.614471 271.256073,257.823090 273.016418,256.945618 
	C272.993805,253.993362 270.752686,252.864182 268.858398,251.085724 
z"/>
</svg>